<?xml version="1.0" encoding="UTF-8"?><svg id="Layer_1" xmlns="http://www.w3.org/2000/svg" viewBox="0 0 660.85 612.28"><defs><style>.cls-1{fill:#141324;}</style></defs><path class="cls-1" d="M658.4,268.22c-2.46-27.67-9.11-54.88-20.7-80.19-23.75-51.84-60.5-100.91-108.48-132.58C478.59,22.03,421.73,1.21,360.82.07c-63.28-1.19-127.13,13.73-183.57,42.38C72.21,95.76,2.06,198.98.04,318.01c-1.14,67.1,19.71,134.16,60.1,187.86,35.09,46.65,79.93,80.37,133.22,103.49,1.53,1.26,4.32,1.82,7.46,1.97,6.93.87,14.53-.48,21.45-2.49,9.81-2.16,23.11-6.25,26.35-13.98,6.43-15.36,12.87-30.73,19.3-46.09.95-1.89.54-3.41-1.23-4.57-34.79-14.86-66.43-33.56-92.5-61.4-30.61-32.69-53.54-74.72-63.07-118.54-19.39-89.19,13.64-183.12,80.91-243.67,27.89-25.1,61.54-43.51,99.11-48.32,45.41-5.81,93.44,6.01,132.91,28.41,79.78,45.25,129.55,131.24,130.9,222.79.79,53.8-15.82,105.97-47.32,149.54-26.3,36.37-62.53,60.46-103.38,77.69-2.49,1.05-14.08,6.46-12.09,11.2,6.19,14.78,12.38,29.56,18.58,44.35,4.97,11.88,37.75-1.13,44.77-4.04,48.69-20.13,93.36-47.54,128.77-87.12,18.27-20.42,33.7-43.17,45.48-67.93,12.04-25.29,23.05-53.23,27.54-80.97,5.15-31.81,3.93-65.97,1.08-97.97Z"/></svg>